<?xml version="1.0" standalone="no"?>
<!DOCTYPE svg PUBLIC "-//W3C//DTD SVG 20010904//EN"
 "http://www.w3.org/TR/2001/REC-SVG-20010904/DTD/svg10.dtd">
<svg version="1.0" xmlns="http://www.w3.org/2000/svg"
 width="400.000000pt" height="400.000000pt" viewBox="0 0 400.000000 400.000000"
 preserveAspectRatio="xMidYMid meet">
<metadata>
Created by potrace 1.14, written by Peter Selinger 2001-2017
</metadata>
<g transform="translate(0.000000,400.000000) scale(0.100000,-0.100000)"
fill="#000000" stroke="none">
<path d="M207 3913 c-25 -425 -40 -600 -72 -843 -13 -96 -24 -218 -24 -270 0
-52 -5 -129 -11 -170 -6 -41 -15 -120 -20 -175 -9 -110 -31 -241 -57 -350 -14
-54 -18 -116 -18 -275 l0 -205 143 1 c79 1 147 5 152 10 5 5 14 50 20 99 5 50
19 167 30 260 11 94 25 224 30 290 10 136 19 167 53 189 27 18 150 21 207 5
26 -8 50 -6 93 5 32 8 63 13 70 11 7 -2 71 -6 142 -9 72 -2 137 -6 145 -8 11
-2 16 9 18 47 4 62 -6 118 -19 109 -5 -3 -16 0 -24 6 -11 9 -49 11 -137 6
-223 -11 -253 -13 -288 -25 -19 -6 -59 -11 -88 -11 -46 0 -58 4 -83 29 -34 35
-35 43 -10 186 19 105 54 393 67 537 7 87 26 113 80 110 218 -11 315 -14 344
-13 19 1 86 3 149 4 77 2 116 6 118 14 7 20 51 -6 56 -33 2 -14 0 -27 -4 -30
-5 -3 -9 -16 -9 -30 0 -13 -5 -24 -11 -24 -6 0 -9 -6 -7 -12 3 -7 -1 -19 -9
-26 -7 -8 -10 -18 -7 -23 3 -6 -1 -18 -8 -27 -15 -17 -16 -62 -5 -327 5 -101
28 -232 44 -244 10 -8 13 -25 22 -136 l8 -90 2 115 c2 63 6 160 10 215 4 55 4
104 -1 110 -13 15 -9 25 7 19 8 -4 15 -1 15 5 0 6 -4 11 -8 11 -19 0 -10 50
13 72 14 12 25 30 25 39 0 8 5 20 12 27 8 8 8 15 0 24 -8 10 -6 27 7 63 28 79
33 86 47 81 8 -3 14 1 14 10 0 14 2 13 16 -1 15 -15 18 -14 31 5 8 11 20 20
27 20 8 0 16 9 19 19 3 14 17 21 50 26 25 4 52 5 59 2 7 -2 23 0 36 4 15 6 21
5 17 -1 -9 -14 106 -12 242 4 93 11 122 11 169 0 32 -7 62 -11 66 -7 14 8 88
9 88 1 0 -4 12 -11 27 -14 37 -10 49 -24 62 -70 10 -38 61 -119 61 -97 0 6 8
10 18 9 10 0 16 6 16 16 -1 10 3 16 10 15 25 -5 8 65 -26 102 l-33 36 36 -33
c35 -32 37 -32 42 -12 3 13 0 23 -9 27 -10 4 -11 9 -5 17 16 19 -14 53 -53 60
-20 4 -38 12 -42 17 -4 7 0 9 13 5 14 -5 19 -1 19 14 0 15 -7 20 -26 21 -15 0
-19 3 -10 6 33 12 40 24 25 39 -8 8 -17 13 -21 12 -3 -2 -14 13 -25 32 -13 25
-18 29 -19 16 0 -19 -1 -18 -23 2 -26 24 -42 29 -31 10 8 -14 -24 11 -65 50
-27 25 -41 22 -20 -5 7 -10 1 -7 -14 6 -15 14 -30 21 -34 18 -3 -4 0 -7 7 -7
23 0 3 -11 -34 -20 -36 -8 -93 6 -136 32 -15 10 -22 10 -32 0 -6 -6 -23 -12
-36 -12 -17 0 -22 -4 -19 -14 9 -23 -34 -27 -74 -8 -30 15 -38 16 -48 4 -15
-16 -55 -12 -57 6 -1 6 -2 19 -3 28 -1 11 -7 14 -17 10 -12 -5 -15 -2 -10 10
5 14 4 15 -9 4 -18 -15 -20 1 -3 18 9 9 9 12 1 12 -7 0 -15 -5 -18 -11 -4 -6
-13 -8 -21 -5 -8 3 -17 -1 -20 -9 -4 -10 -11 -12 -22 -6 -10 4 -24 6 -32 3
-26 -9 -80 -76 -75 -92 4 -8 3 -11 -1 -7 -4 4 -13 2 -21 -4 -10 -9 -13 -8 -13
4 0 29 -21 29 -51 1 -23 -22 -26 -30 -16 -42 10 -13 9 -14 -12 -2 -23 12 -27
10 -51 -19 -15 -17 -30 -31 -34 -31 -14 0 -128 82 -122 88 3 3 16 -3 27 -14
22 -19 22 -19 14 6 l-7 25 27 -28 c14 -15 30 -25 35 -22 4 3 11 -3 15 -13 5
-13 12 -6 31 33 16 32 23 40 19 22 l-6 -28 26 17 c14 9 24 22 21 28 -2 6 -7
20 -11 31 -5 16 -3 15 7 -3 14 -22 15 -22 31 -4 9 10 17 24 17 31 0 7 5 9 10
6 6 -3 10 0 10 8 0 11 -30 14 -170 13 -113 -1 -173 -5 -178 -12 -8 -13 -66
-44 -82 -44 -6 0 -22 12 -36 28 -25 26 -29 27 -125 26 -91 -2 -101 -4 -130
-28 -35 -30 -39 -30 -73 -15 -52 24 -54 63 -19 327 l5 42 -195 0 -195 0 -5
-87z m1437 -313 c-8 -7 -24 24 -23 45 0 15 4 13 14 -10 7 -16 11 -32 9 -35z
m146 -11 c0 -6 -4 -7 -10 -4 -5 3 -10 11 -10 16 0 6 5 7 10 4 6 -3 10 -11 10
-16z m350 17 c0 -3 -4 -8 -10 -11 -5 -3 -10 -1 -10 4 0 6 5 11 10 11 6 0 10
-2 10 -4z m292 -258 c-7 -7 -12 -8 -12 -2 0 14 12 26 19 19 2 -3 -1 -11 -7
-17z m-1097 -298 c3 -5 1 -10 -4 -10 -6 0 -11 5 -11 10 0 6 2 10 4 10 3 0 8
-4 11 -10z"/>
<path d="M2956 3958 c3 -24 7 -54 10 -66 3 -13 7 -40 9 -60 2 -21 7 -61 10
-90 9 -78 -4 -88 -67 -55 -48 25 -53 26 -176 19 -70 -3 -178 -7 -239 -7 -62
-1 -111 -5 -108 -9 3 -4 -4 -10 -15 -13 -11 -3 -20 -1 -20 4 0 5 -11 9 -25 9
-14 0 -25 -5 -25 -11 0 -6 9 -8 20 -4 16 5 20 2 20 -14 0 -14 5 -19 15 -15 8
4 15 1 15 -5 0 -6 5 -11 11 -11 5 0 7 6 3 13 -4 7 -2 7 7 -2 10 -9 11 -15 2
-18 -7 -2 -2 -13 13 -28 13 -13 31 -22 39 -19 23 9 36 -5 25 -27 -9 -15 -7
-19 5 -19 8 0 15 -5 15 -10 0 -6 3 -9 8 -8 4 1 39 -1 77 -5 43 -5 112 -3 177
4 88 10 118 10 163 -1 97 -23 114 -58 151 -305 27 -180 38 -269 40 -315 1 -31
7 -73 13 -95 25 -90 6 -149 -39 -125 -19 10 -184 16 -321 11 l-36 -1 -7 -71
c-4 -39 -10 -78 -13 -87 -5 -11 -3 -13 7 -7 8 5 100 10 206 11 232 4 247 -1
275 -87 10 -30 19 -76 19 -104 0 -27 9 -77 19 -111 11 -34 25 -99 31 -145 6
-46 17 -118 25 -159 8 -41 18 -104 24 -139 6 -36 15 -69 21 -75 15 -15 309
-21 322 -8 7 7 5 25 -6 54 -13 33 -15 53 -8 84 5 22 8 82 6 132 -2 76 -9 112
-38 196 -20 58 -36 113 -36 124 0 11 -9 44 -19 74 -11 29 -30 98 -42 153 -12
55 -37 160 -55 234 -19 73 -34 154 -34 180 0 25 -5 75 -11 111 -6 36 -12 92
-14 125 -3 80 -48 561 -72 778 l-6 57 -189 0 -188 0 6 -42z"/>
<path d="M1714 3716 c-3 -9 -11 -13 -18 -9 -6 4 -4 -1 4 -11 11 -14 15 -15 19
-5 2 8 8 17 14 20 5 4 5 9 -2 13 -6 4 -14 0 -17 -8z"/>
<path d="M1740 3690 c-13 -8 -12 -10 3 -10 9 0 17 5 17 10 0 12 -1 12 -20 0z"/>
<path d="M1776 3682 c-3 -5 8 -9 24 -9 16 0 27 4 24 9 -3 4 -14 8 -24 8 -10 0
-21 -4 -24 -8z"/>
<path d="M1430 3669 c0 -5 5 -7 10 -4 6 3 10 8 10 11 0 2 -4 4 -10 4 -5 0 -10
-5 -10 -11z"/>
<path d="M2501 2914 c0 -11 3 -14 6 -6 3 7 2 16 -1 19 -3 4 -6 -2 -5 -13z"/>
<path d="M2118 2894 c-101 -15 -128 -27 -128 -54 0 -11 -6 -20 -14 -20 -20 0
-26 -78 -10 -115 8 -16 30 -41 50 -54 31 -22 47 -25 128 -25 84 -1 92 1 88 17
-3 12 -14 17 -38 17 -42 0 -87 17 -79 30 3 5 -2 10 -12 11 -16 0 -16 1 2 9 29
12 47 12 39 -1 -5 -8 6 -10 37 -5 66 9 89 7 122 -9 17 -8 38 -15 48 -15 23 0
35 20 19 30 -10 6 -9 9 1 13 10 4 9 6 -3 6 -9 1 -44 14 -79 31 -34 16 -83 32
-107 36 -63 9 -33 23 56 25 74 2 85 9 60 41 -19 23 -60 48 -78 47 -8 -1 -54
-7 -102 -15z m-13 -154 c3 -5 -1 -10 -9 -10 -9 0 -16 5 -16 10 0 6 4 10 9 10
6 0 13 -4 16 -10z"/>
<path d="M1471 2835 c-43 -47 -55 -83 -23 -69 9 4 27 8 39 8 11 1 19 4 16 9
-2 4 16 7 41 7 25 0 48 0 51 0 8 0 6 -15 -2 -16 -36 -3 -102 -34 -136 -64 -23
-20 -49 -39 -57 -43 -10 -4 -8 -6 7 -6 16 -1 20 -6 16 -22 -5 -16 -2 -20 13
-17 11 2 22 7 26 13 4 5 10 6 14 2 4 -3 2 -12 -4 -19 -14 -17 155 -17 213 0
22 6 52 14 66 17 34 6 65 62 55 99 -4 16 -20 40 -37 55 -20 18 -28 33 -23 44
9 25 -36 38 -143 42 l-92 4 -40 -44z m139 -154 c7 10 12 10 23 0 12 -9 16 -9
20 1 3 7 6 3 6 -9 1 -17 -9 -24 -45 -37 -53 -18 -98 -12 -89 12 5 13 3 13 -12
1 -11 -9 -14 -10 -9 -1 4 7 2 12 -5 12 -7 0 -9 3 -5 7 3 4 27 6 51 4 31 -1 45
2 46 11 0 10 2 10 6 -1 4 -11 7 -11 13 0z"/>
<path d="M2503 2843 c-16 -6 -17 -29 -1 -39 7 -4 8 -3 4 4 -4 7 -3 12 2 12 5
0 9 7 9 15 0 8 -1 15 -1 14 -1 0 -7 -3 -13 -6z"/>
<path d="M1284 2442 c4 -7 26 -139 31 -196 2 -16 7 -31 12 -35 15 -10 44 -127
36 -146 -4 -13 -3 -16 6 -11 11 7 38 -48 33 -68 -2 -5 3 -4 11 2 12 10 17 6
28 -20 7 -18 24 -44 37 -58 13 -14 31 -37 40 -52 9 -16 19 -28 23 -28 11 0 99
-88 99 -100 0 -5 3 -9 8 -8 4 2 19 -7 32 -20 14 -13 33 -21 42 -19 9 3 19 -2
22 -10 4 -9 13 -13 22 -9 9 4 28 -1 41 -10 14 -8 27 -13 30 -10 3 2 30 -6 61
-20 31 -13 58 -20 61 -15 3 5 22 9 41 9 19 0 49 6 65 13 17 7 36 11 43 10 6
-1 12 6 12 16 0 13 13 23 46 32 29 9 48 21 51 32 3 10 9 16 14 13 5 -3 6 3 2
12 -5 13 -3 15 7 9 8 -5 11 -4 6 3 -8 13 42 74 55 67 4 -3 15 10 23 30 9 20
19 35 23 32 8 -4 40 25 46 40 1 5 5 7 10 6 4 -2 7 3 7 10 0 7 8 22 18 33 9 10
18 27 20 36 1 9 9 29 17 44 7 14 11 32 9 39 -3 6 2 18 11 25 8 7 15 18 15 24
0 6 -7 3 -14 -7 -11 -15 -15 -15 -19 -3 -3 8 -2 30 3 47 7 24 6 35 -3 41 -6 4
-13 3 -15 -2 -2 -6 -8 -10 -14 -10 -6 0 -20 -10 -32 -22 -33 -35 -79 -68 -93
-68 -6 0 -17 8 -22 18 -9 14 -10 12 -11 -13 0 -24 -3 -27 -10 -14 -5 9 -7 27
-4 40 16 71 13 109 -9 130 -30 28 -60 39 -122 43 -37 2 -60 10 -75 24 -20 19
-21 22 -7 28 28 10 19 24 -15 24 -17 0 -51 -12 -76 -26 -47 -28 -87 -27 -144
2 -31 16 -68 18 -68 4 0 -5 7 -10 15 -10 8 0 15 -4 15 -8 0 -13 -37 -53 -46
-51 -5 1 -22 -3 -37 -9 -16 -7 -32 -12 -37 -12 -4 0 -31 -12 -59 -26 -44 -23
-50 -30 -47 -53 3 -26 6 -33 33 -100 7 -19 11 -32 7 -28 -4 3 -14 -3 -23 -14
-16 -20 -17 -20 -49 10 -17 17 -32 35 -32 39 0 4 -10 13 -21 21 -18 11 -23 11
-30 -1 -7 -10 -9 -10 -9 2 0 8 -16 30 -35 49 -19 19 -35 42 -35 53 0 10 -7 32
-15 47 -22 43 -45 113 -45 139 0 12 -5 22 -11 22 -5 0 -8 -3 -5 -8z m861 -201
c31 -7 -33 -15 -82 -11 l-58 4 45 6 c42 5 71 5 95 1z m-165 -14 c-28 -12 -280
-16 -280 -5 0 9 72 15 200 15 80 0 99 -2 80 -10z m231 -79 c6 -15 17 -29 25
-32 8 -3 14 -10 14 -16 0 -6 -3 -9 -8 -6 -4 2 -6 -13 -4 -33 3 -32 -2 -43 -37
-81 -22 -24 -37 -48 -34 -54 4 -7 2 -7 -6 0 -14 13 -54 7 -45 -7 3 -5 -4 -9
-15 -9 -12 0 -21 -6 -21 -12 0 -10 -3 -9 -9 1 -7 10 -10 10 -13 1 -5 -17 -58
-22 -59 -7 0 7 -4 2 -9 -9 -8 -22 -50 -40 -50 -22 0 5 -5 6 -10 3 -6 -4 -17
-1 -25 5 -11 9 -18 7 -32 -9 -21 -26 -33 -27 -33 -3 0 13 -2 14 -9 4 -6 -11
-10 -10 -15 4 -3 9 -9 14 -13 10 -3 -3 -12 3 -20 14 -8 11 -20 17 -29 13 -9
-3 -24 5 -37 21 -13 14 -29 26 -37 26 -43 1 -70 169 -31 190 26 13 68 12 113
-4 33 -12 37 -11 41 5 5 20 45 24 207 21 36 -1 83 2 104 6 68 13 85 9 97 -20z"/>
<path d="M1858 2073 c-23 -6 -22 -9 3 -44 27 -39 85 -42 99 -5 5 13 14 27 20
31 21 13 0 22 -52 22 -29 1 -61 -1 -70 -4z"/>
<path d="M2210 2380 c0 -5 5 -10 11 -10 5 0 7 5 4 10 -3 6 -8 10 -11 10 -2 0
-4 -4 -4 -10z"/>
<path d="M1185 1785 c-14 -35 -26 -48 -56 -62 -29 -14 -39 -24 -39 -42 0 -14
-15 -37 -36 -58 -20 -19 -34 -36 -32 -38 11 -11 79 19 118 52 43 37 46 38 117
36 77 -3 140 -22 149 -47 5 -12 11 -9 29 12 14 17 20 31 14 38 -4 5 -8 21 -7
35 1 13 1 38 0 56 l-2 32 -54 -6 c-43 -4 -63 -1 -98 16 -67 32 -83 29 -103
-24z"/>
<path d="M2559 1628 c0 -18 -2 -40 -4 -48 -8 -37 -85 -250 -101 -281 -27 -51
-41 -92 -75 -229 -17 -69 -49 -181 -71 -250 -22 -69 -64 -208 -93 -310 -30
-102 -69 -230 -88 -286 -19 -56 -38 -129 -42 -163 l-7 -61 961 0 961 0 0 243
c0 222 -9 317 -28 317 -4 0 -7 15 -6 34 2 44 -17 128 -33 144 -12 12 -18 47
-14 79 1 6 -3 14 -9 18 -5 3 -10 16 -10 27 0 12 -6 29 -13 37 -7 9 -22 44 -33
79 -19 64 -41 83 -78 69 -8 -3 -16 -2 -18 3 -2 6 -16 3 -31 -5 -29 -15 -29 -7
0 27 13 14 12 17 -7 23 -11 4 -27 2 -35 -5 -10 -8 -16 -7 -27 8 -14 20 -46 36
-65 33 -7 -1 -13 2 -13 7 0 7 -71 29 -115 36 -8 1 -21 8 -27 14 -7 7 -21 12
-33 12 -11 0 -37 8 -57 18 -27 14 -41 16 -55 9 -16 -10 -17 -9 -4 7 8 9 10 16
5 14 -5 -1 -19 3 -30 10 -12 6 -24 8 -28 5 -3 -3 -6 -2 -6 4 0 10 -54 38 -73
38 -4 0 -11 5 -15 11 -4 6 -17 14 -29 18 -13 4 -23 12 -23 17 0 5 -5 9 -10 9
-6 0 -28 12 -49 26 -36 23 -87 37 -103 28 -4 -3 0 -20 8 -39 13 -32 13 -35 -2
-35 -14 0 -14 -3 -4 -15 11 -13 10 -14 -4 -9 -10 4 -15 12 -12 19 2 7 -1 18
-7 25 -10 10 -8 12 8 6 17 -5 18 -4 4 6 -9 7 -14 19 -12 26 4 11 -11 16 -44
15 -7 -1 -13 2 -13 6 0 3 -11 7 -24 7 -24 2 -25 -1 -14 -56 7 -34 -19 -22 -47
22 -16 26 -37 50 -45 53 -8 3 -28 17 -45 31 -16 14 -35 29 -41 32 -5 4 -20 40
-33 80 -24 77 -41 93 -42 40z m391 -408 c30 -16 52 -29 49 -30 -10 0 -119 51
-119 56 0 8 16 2 70 -26z"/>
<path d="M1442 1618 c-5 -7 -24 -42 -42 -78 -29 -58 -110 -162 -165 -214 -31
-29 -66 -40 -118 -37 -40 2 -46 0 -41 -13 5 -13 -1 -16 -27 -17 -94 -3 -180
-31 -263 -84 -28 -18 -76 -43 -106 -56 -30 -13 -74 -38 -98 -56 -40 -31 -55
-37 -74 -34 -5 0 -8 -3 -8 -8 0 -5 -18 -12 -40 -16 -22 -4 -42 -10 -45 -14 -2
-5 -25 -14 -50 -21 -34 -10 -45 -17 -45 -33 0 -16 -3 -17 -15 -7 -11 9 -19 8
-39 -7 -29 -21 -41 -47 -57 -128 -6 -32 -17 -73 -25 -90 -7 -16 -25 -79 -40
-140 -15 -60 -33 -122 -40 -137 -8 -15 -14 -56 -14 -90 0 -38 -8 -87 -20 -121
-24 -68 -26 -120 -4 -138 10 -8 14 -24 12 -46 l-4 -33 946 1 c543 0 936 4 924
9 -12 5 -25 14 -29 20 -10 16 -94 246 -110 300 -7 25 -43 128 -80 230 -37 102
-78 221 -92 264 l-25 79 21 28 c12 16 21 31 21 35 0 3 9 17 20 31 l20 26 -34
38 c-19 21 -42 52 -51 70 -26 49 -36 22 -18 -48 8 -34 12 -70 8 -80 -5 -12
-15 15 -31 82 -14 55 -33 123 -43 150 -60 158 -66 187 -64 293 1 56 1 102 -1
102 -2 0 -8 -6 -14 -12z"/>
<path d="M1214 1516 c-3 -9 -3 -23 0 -32 6 -15 9 -15 29 -1 12 8 22 21 22 28
0 20 -44 24 -51 5z"/>
<path d="M2397 1479 c-26 -28 -47 -56 -47 -63 0 -6 -16 -23 -35 -39 -19 -15
-40 -37 -46 -48 -19 -37 23 -6 73 53 44 53 112 148 105 148 -2 0 -24 -23 -50
-51z"/>
<path d="M1490 1445 c0 -14 102 -204 145 -268 25 -38 45 -73 45 -78 0 -7 51
-39 64 -39 23 0 -57 149 -120 222 -24 28 -41 56 -37 61 3 6 1 7 -5 3 -7 -4
-12 -3 -12 3 0 5 -18 31 -40 56 -22 25 -40 43 -40 40z"/>
<path d="M3133 1426 c-49 -17 -49 -24 3 -39 35 -10 55 -11 75 -4 21 8 33 7 53
-6 14 -10 26 -23 26 -30 0 -8 23 -12 79 -12 68 0 83 -3 103 -22 19 -18 31 -21
61 -16 43 7 151 -13 185 -34 12 -7 22 -20 22 -28 0 -17 13 -19 57 -6 23 7 51
4 104 -9 39 -10 77 -16 85 -13 10 4 14 23 14 66 0 33 -3 57 -7 54 -3 -4 -14
-1 -22 7 -9 8 -52 29 -95 46 -58 23 -90 31 -120 28 -23 -3 -86 1 -141 8 -116
15 -324 20 -376 9 -20 -4 -45 -3 -55 3 -13 6 -30 6 -51 -2z"/>
<path d="M1245 1390 c-3 -5 -3 -10 2 -10 4 0 -6 -8 -24 -16 -33 -17 -52 -44
-28 -40 21 3 62 44 62 61 0 18 -3 19 -12 5z"/>
<path d="M385 1354 c-9 -9 -15 -26 -13 -38 2 -16 11 -22 41 -24 21 -2 44 1 51
7 16 13 322 6 359 -8 22 -9 28 -8 25 1 -3 7 -17 14 -33 16 -15 2 -34 10 -41
17 -15 14 -136 45 -177 45 -14 0 -41 -7 -62 -16 -34 -14 -41 -14 -76 0 -49 20
-54 20 -74 0z"/>
<path d="M180 1341 c-14 -3 -37 -14 -52 -24 -19 -14 -36 -16 -62 -11 -20 3
-39 10 -42 15 -16 26 -24 0 -24 -76 0 -70 3 -85 15 -85 9 0 18 7 21 15 8 21
78 44 159 53 l70 7 3 34 c6 58 -5 81 -36 80 -15 -1 -38 -4 -52 -8z"/>
<path d="M2298 1283 c0 -10 -2 -31 -3 -46 -1 -16 -8 -33 -15 -37 -9 -6 -7 -10
9 -15 27 -8 24 -11 38 45 8 31 8 49 1 57 -15 18 -28 16 -30 -4z"/>
<path d="M466 1081 c-3 -5 -14 -7 -24 -4 -10 2 -24 -2 -31 -10 -20 -25 5 -29
44 -8 20 10 32 22 26 25 -5 4 -12 2 -15 -3z"/>
<path d="M254 1037 c-74 -44 -93 -60 -91 -77 1 -10 5 -16 9 -14 4 3 9 -13 9
-35 1 -23 3 -45 4 -51 1 -5 3 -19 4 -31 0 -11 5 -18 10 -14 6 3 9 18 8 33 -3
28 5 40 66 103 22 22 41 53 44 70 4 25 1 29 -19 29 -13 0 -32 -6 -44 -13z"/>
<path d="M4 603 c3 -197 8 -369 10 -383 1 -14 4 -38 4 -55 2 -23 5 -26 15 -17
9 10 13 105 18 375 7 478 10 431 -25 435 l-29 4 7 -359z"/>
<path d="M3948 915 c10 -28 24 -49 30 -48 6 2 9 -4 6 -12 -4 -8 -2 -15 3 -15
13 0 15 58 2 81 -6 11 -13 18 -16 15 -4 -3 -15 2 -25 11 -19 17 -19 16 0 -32z"/>
<path d="M2006 875 c4 -8 7 -15 9 -15 2 0 5 7 9 15 3 9 0 15 -9 15 -9 0 -12
-6 -9 -15z"/>
<path d="M3980 821 c0 -6 4 -12 8 -15 5 -3 9 1 9 9 0 8 -4 15 -9 15 -4 0 -8
-4 -8 -9z"/>
<path d="M1995 599 c-4 -6 -4 -13 -1 -16 3 -4 6 -1 6 5 0 7 6 12 14 12 10 0
13 -8 10 -25 -5 -30 17 -30 29 -1 12 29 -42 52 -58 25z"/>
<path d="M1992 561 c2 -8 15 -21 29 -30 19 -11 21 -12 9 0 -8 8 -21 21 -29 29
-11 12 -12 12 -9 1z"/>
<path d="M20 121 c0 -6 4 -13 10 -16 6 -3 7 1 4 9 -7 18 -14 21 -14 7z"/>
<path d="M26 75 c-3 -8 0 -15 7 -15 9 0 9 -2 0 -8 -14 -9 -12 -35 2 -42 6 -3
11 14 13 38 3 41 -10 57 -22 27z"/>
</g>
</svg>
